<?xml version="1.0" encoding="UTF-8" standalone="no"?>
<!-- Created with Inkscape (http://www.inkscape.org/) -->

<svg
   xmlns:dc="http://purl.org/dc/elements/1.1/"
   xmlns:cc="http://creativecommons.org/ns#"
   xmlns:rdf="http://www.w3.org/1999/02/22-rdf-syntax-ns#"
   xmlns:svg="http://www.w3.org/2000/svg"
   xmlns="http://www.w3.org/2000/svg"
   xmlns:xlink="http://www.w3.org/1999/xlink"
   xmlns:sodipodi="http://sodipodi.sourceforge.net/DTD/sodipodi-0.dtd"
   xmlns:inkscape="http://www.inkscape.org/namespaces/inkscape"
   width="40px"
   height="40px"
   viewBox="0 0 40 40"
   version="1.1"
   id="SVGRoot"
   inkscape:version="0.92.5 (2060ec1f9f, 2020-04-08)"
   sodipodi:docname="logo-kanban.svg">
  <defs
     id="defs831">
    <linearGradient
       gradientTransform="matrix(0.18469301,0,0,0.18469301,13.905163,0.91576454)"
       xlink:href="#b"
       id="d"
       x1="93.530998"
       y1="104.118"
       x2="116.845"
       y2="90.239998"
       gradientUnits="userSpaceOnUse" />
    <linearGradient
       id="b">
      <stop
         offset="0"
         stop-color="#d35f5f"
         id="stop1648" />
      <stop
         offset="1"
         stop-color="#d35f5f"
         stop-opacity="0"
         id="stop1650" />
    </linearGradient>
    <linearGradient
       gradientTransform="matrix(0.18469301,0,0,0.18469301,13.905163,0.91576454)"
       xlink:href="#a"
       id="c"
       x1="28.298"
       y1="153.226"
       x2="79.494003"
       y2="51.444"
       gradientUnits="userSpaceOnUse" />
    <linearGradient
       id="a">
      <stop
         offset="0"
         stop-color="#0087ff"
         id="stop1653" />
      <stop
         offset="1"
         stop-color="#00ffe6"
         stop-opacity="0"
         id="stop1655" />
    </linearGradient>
  </defs>
  <sodipodi:namedview
     id="base"
     pagecolor="#ffffff"
     bordercolor="#666666"
     borderopacity="1.0"
     inkscape:pageopacity="0.0"
     inkscape:pageshadow="2"
     inkscape:zoom="6.4"
     inkscape:cx="26.296722"
     inkscape:cy="9.0943925"
     inkscape:document-units="px"
     inkscape:current-layer="layer1"
     showgrid="false"
     inkscape:window-width="1866"
     inkscape:window-height="1016"
     inkscape:window-x="54"
     inkscape:window-y="27"
     inkscape:window-maximized="1"
     inkscape:grid-bbox="true" />
  <metadata
     id="metadata834">
    <rdf:RDF>
      <cc:Work
         rdf:about="">
        <dc:format>image/svg+xml</dc:format>
        <dc:type
           rdf:resource="http://purl.org/dc/dcmitype/StillImage" />
        <dc:title />
      </cc:Work>
    </rdf:RDF>
  </metadata>
  <g
     inkscape:label="Layer 1"
     inkscape:groupmode="layer"
     id="layer1">
    <rect
       y="2.1658149"
       x="2.1658149"
       height="35.668369"
       width="35.668369"
       id="rect819"
       style="opacity:1;fill:#ffeeaa;fill-opacity:1;fill-rule:nonzero;stroke:#7c7453;stroke-width:4.33162975;stroke-linecap:square;stroke-linejoin:miter;stroke-miterlimit:4;stroke-dasharray:none;stroke-dashoffset:0;stroke-opacity:1;paint-order:markers stroke fill"
       ry="3.6460195" />
    <path
       inkscape:connector-curvature="0"
       style="fill:#000000;stroke-width:0.28561288;fill-opacity:0.51368421"
       d="M 19.010558,4.7776226 C 18.56243,9.1986257 20.373217,10.029473 7.7996828,33.717632 9.9746231,30.205164 14.238538,29.858143 22.139447,35.021455 19.003416,18.794359 21.619631,12.388064 19.010843,4.7779101 Z"
       id="path1662" />
    <path
       inkscape:connector-curvature="0"
       style="fill:#000000;stroke-width:0.28561288;fill-opacity:0.51368421"
       d="m 19.010558,4.7776226 7.691553,21.9007954 6.387731,-4.301901 z"
       id="path1664" />
    <g
       transform="matrix(0.28561285,0,0,0.28561287,-10.333879,4.7776226)"
       aria-label="dev"
       style="font-weight:400;font-size:40px;line-height:1.25;font-family:'Source Sans Pro';-inkscape-font-specification:'Source Sans Pro';letter-spacing:0;word-spacing:0;fill:#000000;stroke:none;fill-opacity:0.51368421"
       font-weight="400"
       font-size="40"
       letter-spacing="0"
       word-spacing="0"
       id="g1670">
      <path
         style="fill:#000000;stroke-width:0.49039999;fill-opacity:0.51368421;stroke:none"
         inkscape:connector-curvature="0"
         d="m 122.089,102.844 q -1.825,0 -2.904,-1.314 -1.059,-1.334 -1.059,-3.727 0,-1.177 0.334,-2.119 0.353,-0.941 0.922,-1.589 0.569,-0.647 1.294,-1 0.746,-0.353 1.53,-0.353 0.824,0 1.393,0.294 0.569,0.275 1.138,0.765 l -0.079,-1.55 V 88.76 h 2.256 v 13.849 h -1.863 l -0.157,-1.04 h -0.079 q -0.53,0.53 -1.236,0.902 -0.706,0.373 -1.49,0.373 z m 0.549,-1.863 q 1.079,0 2.02,-1.08 V 95.41 q -0.51,-0.452 -1,-0.628 -0.47,-0.177 -0.961,-0.177 -0.942,0 -1.59,0.824 -0.646,0.824 -0.646,2.354 0,1.57 0.549,2.393 0.569,0.805 1.628,0.805 z m 11.268,1.863 q -1,0 -1.863,-0.333 -0.863,-0.354 -1.51,-1 -0.648,-0.648 -1.02,-1.57 -0.354,-0.942 -0.354,-2.138 0,-1.177 0.373,-2.119 0.373,-0.941 0.98,-1.589 0.629,-0.647 1.433,-1 0.804,-0.353 1.648,-0.353 0.98,0 1.726,0.333 0.745,0.334 1.236,0.942 0.51,0.608 0.765,1.451 0.255,0.844 0.255,1.844 0,0.334 -0.04,0.628 -0.02,0.294 -0.058,0.47 h -6.12 q 0.156,1.295 0.902,2.002 0.765,0.686 1.942,0.686 0.627,0 1.157,-0.176 0.55,-0.197 1.079,-0.53 l 0.765,1.412 q -0.687,0.452 -1.53,0.746 -0.844,0.294 -1.766,0.294 z m -2.57,-5.963 h 4.277 q 0,-1.118 -0.49,-1.746 -0.471,-0.647 -1.472,-0.647 -0.863,0 -1.51,0.608 -0.647,0.608 -0.804,1.785 z m 10.57,5.728 -3.354,-9.632 h 2.295 l 1.53,5.002 q 0.196,0.706 0.392,1.432 0.216,0.726 0.412,1.471 h 0.079 q 0.215,-0.745 0.411,-1.47 0.197,-0.727 0.412,-1.433 l 1.53,-5.002 h 2.178 l -3.276,9.632 z"
         id="path1668" />
    </g>
  </g>
</svg>
